<?xml version="1.0" encoding="utf-8"?>
<!-- Generator: Adobe Illustrator 16.0.0, SVG Export Plug-In . SVG Version: 6.00 Build 0)  -->
<!DOCTYPE svg PUBLIC "-//W3C//DTD SVG 1.1//EN" "http://www.w3.org/Graphics/SVG/1.1/DTD/svg11.dtd">
<svg version="1.1" id="Layer_1" xmlns="http://www.w3.org/2000/svg" xmlns:xlink="http://www.w3.org/1999/xlink" x="0px" y="0px"
	 width="119.815px" height="119.782px" viewBox="0 0 119.815 119.782" enable-background="new 0 0 119.815 119.782"
	 xml:space="preserve">
<g>
	<g>
		<g>
			<path d="M97.431,101.568c0.041-0.077-0.01-0.118-0.045-0.143l-0.004-0.004h-0.004c0-0.001,0-0.001,0-0.001
				c-0.002-0.002-0.002-0.002-0.002-0.002c-0.002-0.002,0-0.002,0-0.002l-0.004-0.002c-0.004,0-0.004,0-0.004,0
				c-0.004,0-0.004-0.002-0.004-0.002c-0.143-0.063-0.27-0.158-0.422-0.193c-0.205-0.048-0.404,0.076-0.609,0.007
				c-0.109-0.037-0.102-0.165-0.176-0.232c-0.039-0.029-0.092,0.011-0.127-0.026c-0.014-0.016-0.008-0.035-0.01-0.055
				c-0.029-0.202-0.385-0.185-0.385-0.185c-0.193,0.024-0.123,0.204-0.092,0.278c0.076,0.187,0.176,0.299,0.305,0.338
				c0.078,0.022,0.141,0.022,0.318-0.002c0.135-0.018,0.277-0.029,0.531,0.021C96.948,101.415,97.185,101.505,97.431,101.568z"/>
			<path d="M103.263,96.184c-0.275,0.364-0.322,0.434-0.283,0.724c0.252-0.322,0.461-0.555,0.623-0.689
				c0.045-0.037,0.096-0.081,0.172-0.178c0.15-0.18,0.271-0.379,0.404-0.567c0.209-0.296,0.391-0.607,0.609-0.896
				c0.111-0.151,0.254-0.271,0.373-0.412c0.002-0.002,0.004-0.005,0.006-0.009c-0.004,0-0.008-0.002-0.01-0.004
				c-0.096,0.044-0.877,0.518-0.955,0.587c-0.109,0.097-0.193,0.269-0.314,0.531C103.81,95.438,103.669,95.64,103.263,96.184z"/>
			<path d="M96.218,102.589c0.232-0.084,0.436-0.233,0.666-0.318c0.061-0.02,0.131-0.035,0.221-0.048
				c0.18-0.019,0.217-0.027,0.486-0.132c0.027-0.011,0.213-0.088,0.432-0.197c0.01-0.005,0.014-0.009,0.021-0.014
				c0,0-0.002-0.002-0.004,0c-0.176-0.021-0.305-0.188-0.496-0.167c-0.08,0.011-0.182,0.044-0.225,0.058
				c-0.123,0.042-0.223,0.138-0.346,0.18c-0.154,0.053-0.32,0.048-0.473,0.103c-0.354,0.137-0.404,0.17-0.586,0.373
				c-0.1,0.11-0.186,0.189-0.266,0.241c0.16,0.056,0.404-0.021,0.416-0.025C96.11,102.628,96.171,102.605,96.218,102.589z"/>
			<path d="M102.778,94.944c0.021-0.205,0.018-0.211-0.01-0.259c-0.137,0.006-0.238,0.214-0.395,0.099
				c-0.027-0.018-0.027-0.018-0.135-0.483c-0.154-0.113-0.299-0.192-0.449-0.273c-0.262,0.072-0.709,0.278-0.895,0.445
				c-0.213,0.188-0.279,0.317-0.412,0.572c-0.096,0.187-0.186,0.362-0.828,0.933c-0.557,0.497-1.193,0.899-1.727,1.428
				c-0.027,0.026-0.061,0.063-0.086,0.09c-0.111,0.129-0.219,0.353-0.25,0.486c-0.023,0.108,0.072,0.183,0.076,0.285
				c0.002,0.151-0.836,1.036-1.34,1.487c-0.049,0.042-0.115,0.097-0.146,0.151c-0.051,0.081-0.121,0.2,0.037,0.285
				c0.039,0.019,0.297,0.097,0.402,0.007c0.129-0.111,0.146-0.291,0.256-0.412c0.355-0.393,0.771-0.718,1.121-1.112
				c0.066-0.079,0.133-0.155,0.197-0.232c0.055-0.065,0.107-0.132,0.166-0.197c0.047-0.057,0.094-0.112,0.139-0.167
				c0.037-0.046,0.074-0.092,0.113-0.138c0.029-0.033,0.061-0.07,0.088-0.104c0.02-0.026,0.039-0.053,0.061-0.075
				c0.01-0.015,0.023-0.03,0.037-0.045c0-0.003,0.006-0.01,0.012-0.014c0.008,0.002,0.025,0.007,0.039,0.011
				c0.033,0.123-0.029,0.261-0.475,1.042c-0.73,1.283-0.621,1.229,0.404,0.698c0.018-0.426,0.018-0.426,0.027-0.446
				c0.137-0.27,0.416-0.419,0.578-0.668c0.25-0.38,0.256-0.878,0.592-1.216c0.012-0.013,0.035-0.018,0.049-0.026
				c0.125-0.051,0.248,0.063,0.373,0.011c0.264-0.113,0.418-0.391,0.703-0.469c0.223-0.056,0.346,0.046,0.389,0.085
				c0.291-0.46-0.49-0.438-0.971-0.324c-0.627,0.146-0.723,0.169-0.533-0.156c0.18-0.31,0.832-1.281,1.045-1.368
				c0.051-0.02,0.092-0.024,0.121-0.016c0.129,0.042,0.18,0.185,0.303,0.232c0.137,0.055,0.285,0,0.42,0.058
				c0.07,0.03,0.156,0.104,0.287,0.215c0.494,0.41,0.572,0.395,1.373-0.283c-0.043-0.066-0.111-0.11-0.186-0.158
				c-0.354,0.183-0.467,0.232-0.543,0.2C102.765,95.104,102.774,95.003,102.778,94.944z"/>
			<path d="M93.687,109.522c0.035-0.188,0.041-0.204,0.318-0.474c0.586-0.563,0.748-1.429,1.389-1.957
				c0.656-0.542,1.59-0.664,2.125-1.393c0.543-0.741-0.07-1.125-0.361-0.945c-0.123,0.076-0.16,0.115-0.588,0.592
				c-0.352-0.495-0.416-0.583-2.391,1.026c-0.029-0.037-0.07-0.088-0.1-0.125c0.121-0.868,0.121-0.868,0.119-0.886
				c-0.15-0.024-0.17-0.028-0.529,0.131c-1.178,0.522-2.126,0.887-2.828,1.086c-0.81,0.229-1.343,0.929-2.105,1.24
				c-1.684,0.625-3.642,0.085-5.199,1.239c0.018-0.081,0.053-0.189,0.097-0.262l-3.9,2.692c-1.139,0.794-2.081,1.835-3.247,2.595
				c-0.914,0.597-2.331,0.329-2.822,1.651c0.072,0.072,0.217,0.22,1.176-0.011c0.629-0.149,1.248,0.156,1.879,0.035
				c0.666-0.132,1.289-0.433,1.977-0.491c0.22-0.02,0.22-0.02,0.311,0.103c0.427,0.058,0.777-0.491,1.24-0.153
				c0.216,0.16,0.461,0.338-0.236,0.889c-0.203,0.157-0.203,0.157-1.156,0.675c0.094,0.016,0.094,0.016,1.525-0.303
				c-0.615,0.24-1.248,0.429-1.869,0.659c0.115-0.012,0.264-0.04,0.373-0.064c-1.229,0.605-2.59,0.91-3.752,1.667
				c0,0.033,0,0.077,0.004,0.114c0.089,0.018,0.089,0.018,0.534-0.053c-0.19,0.123-0.415,0.163-0.619,0.257
				c0.659,0.378,7.044-1.734,9.924-3.051c1.7-0.772,3.46-1.577,6.881-4.096c6.027-4.434,7.125-6.205,7.133-6.223
				C97.151,106.87,95.661,108.53,93.687,109.522z"/>
			<path d="M95.169,92.801c-0.301,0.597-0.328,0.754-0.131,0.754c0.033,0,0.07-0.006,0.104-0.006c0.141,0.006,0.197,0.19-0.33,1.02
				c-0.24,0.38-0.287,0.501-0.221,0.579c0.133,0.172,0.404,0.037,0.531,0.232c0.24,0.371,0.24,0.371,0.488,0.358
				c0.293-0.014,0.428,0.141,0.488,0.273c0.121,0.26,0.4,0.869,0.756,0.762c0.08-0.026,0.207-0.16,0.645-0.68
				c0.186-0.22,0.436-0.522,0.748-0.729c0.24-0.154,0.518-0.243,0.736-0.435c0.26-0.226,0.424-0.524,0.648-0.778
				c0.168-0.195,0.723-0.799,0.729-0.435c0,0.021,0.004,0.051,0.006,0.072c0.008,0.002,0.02,0.009,0.027,0.014
				c0.141-0.062,0.242-0.183,0.365-0.269c0.006-0.008,0.018-0.015,0.025-0.02c0.045-0.039,0.068-0.06,0.102-0.138
				c0.01-0.037,0.018-0.081-0.02-0.171c-0.062-0.149-0.125-0.304,0.055-0.606c0.518-0.866,0.518-0.866,0.629-1.217
				c0.027-0.079,0.053-0.155,0.582-0.458c0.211-0.123,0.334-0.336,0.521-0.475c0.15-0.109,0.338-0.138,0.49-0.239
				c0.023-0.017,0.061-0.048,0.061-0.078c-0.002-0.125-0.127-0.204-0.131-0.327c-0.02-0.412,0.078-0.818,0.051-1.23
				c-0.004-0.073-0.047-0.169-0.094-0.227h-0.002h-0.002l0,0l0,0h-0.002c-0.09,0.02-0.117,0.022-0.408,0.202
				c-0.76,0.474-1.164,0.816-1.197,1.016c-0.01,0.066-0.021,0.127-0.221,0.229c-0.037,0.021-0.09,0.041-0.131,0.059
				c-0.164,0.07-0.35,0.047-0.518,0.116c-0.176,0.072-0.32,0.197-0.482,0.297c-0.002,0.006-0.719,0.44-1.441,0.585
				c-1.02,0.207-1.307,0.669-1.242,1.003c-0.188,0.074-0.617-0.448-0.494-0.816c0.004-0.011,0.004-0.011,0.004-0.011l0,0l0,0l0,0
				l0,0l0,0l0,0c-0.283-0.051-0.582,0.239-0.818,0.474c-0.273,0.264-0.303,0.29-0.375,0.401c-0.135,0.191,0.01,0.426-0.104,0.621
				C95.501,92.687,95.259,92.623,95.169,92.801z"/>
			<path d="M92.229,91.263c-0.002-0.087-0.16-0.926-0.16-0.93c-0.025-0.081-0.062-0.13-0.27-0.349
				c-0.145-0.156-0.261-0.285-0.335-0.413l-0.715-1.452c-0.003-0.011-0.433-1.123-0.428-1.649c0.02-0.882-1.691-1.463-1.709-1.465
				c-0.25,0.059,0.283,1.866,0.436,1.954c0.119,0.072,0.34-0.032,0.383,0.158c0.01,0.037,0.015,0.092,0.016,0.13
				c0.029,0.416-0.235,0.796-0.137,1.22c0.062,0.276,0.271,0.506,0.266,0.807c-0.033,0.25-0.129,0.487-0.156,0.737
				c-0.006,0.044-0.008,0.103-0.006,0.148c0.006,0.235,0.141,0.445,0.146,0.681c0.004,0.101-0.011,0.155-0.109,0.563
				c-0.004,0.016-0.375,1.733-0.342,2.005c0.05,0.399,0.207,0.776,0.258,1.178c0.07,0.553-0.148,1.124,0.112,1.665
				c0.063,0.136,0.208-0.041,0.315-0.018c0.109,0.026,0.182,0.121,0.289,0.143c0.014,0.002,0.033,0.005,0.047,0.005
				c0.07-0.002,0.16-0.02,0.324-0.146c0.246-0.195,0.894-0.907,1.075-1.145c0.122-0.16,0.411-0.57,0.428-0.922
				c0.016-0.309-0.334-0.482-0.303-0.798c0.029-0.329,0.178-0.636,0.186-0.972c0.004-0.139-0.197-0.185-0.158-0.338
				c0-0.004,0.113-0.34,0.422-0.628C92.179,91.37,92.233,91.317,92.229,91.263z"/>
			<path d="M12.471,23.037c0.143,0.064,0.964-0.539,0.972-0.545c0.278-0.209,0.542-0.436,0.827-0.633
				c0.157-0.109,0.345-0.16,0.493-0.283c0.197-0.167,0.359-0.317,0.764-0.843c0.32-0.409,0.396-0.53,0.539-0.763
				c0.324-0.512,0.845-0.836,1.235-1.281c0.428-0.488,0.299-0.605,0.247-0.654c-0.074-0.062-0.095-0.1-0.021-0.219
				c0,0-0.007-0.002-0.011-0.002c-0.637,0.35-1.301,0.812-1.25,1.062c0.014,0.002,0.035,0.002,0.047-0.001
				c-0.327,0.259-0.69,0.468-1.012,0.733c-0.391,0.32-0.568,0.504-0.762,0.729c-0.188,0.244-0.22,0.361-0.093,0.35
				c0.035-0.003,0.083-0.024,0.107-0.033c-0.016,0.02-0.037,0.042-0.058,0.06C14.187,21.011,12.432,22.796,12.471,23.037z"/>
			<path d="M78.302,2.797c-0.761-0.295-2.373-0.768-2.688-0.858l-0.859-0.239c1.189,0.335,2.355,0.749,3.539,1.098
				C78.294,2.797,78.298,2.799,78.302,2.797z"/>
			<path d="M15.029,22.074c-0.02,0.029-0.072,0.172,0.223,0.128c0.049-0.008,0.15-0.038,0.303-0.086
				c0.534-0.163,0.624-0.146,0.687-0.106c-0.003,0.198-0.347,0.41-0.464,0.438c-0.229,0.056-0.32,0.084-0.584,0.293
				c-0.176,0.138-0.37,0.367-0.537,0.515c-0.452,0.395-1.016,0.659-1.375,1.162c0.09,0.017,0.09,0.017,0.289-0.052
				c0.843-0.295,1.639-0.722,2.5-0.978c0.278-0.081,0.57-0.132,0.843-0.237c0.09-0.034,0.169-0.096,0.259-0.137
				c0.514-0.245,1.089-0.37,1.556-0.722c0.032-0.021,0.065-0.061,0.069-0.096c-0.276-0.092-0.518,0.199-0.795,0.072
				c0.1-0.155,0.1-0.155,0.526-0.55c0.328-0.305,1.328-1.231,1.218-1.612c-0.172-0.095-0.43,0.217-0.524-0.012
				c-0.021-0.056,0.077-0.457,0.251-0.65c0.088-0.076,0.088-0.076,0.384-0.043c0.09,0.035,0.238,0.096,0.34-0.02
				c0.005-0.004,0.009-0.012,0.014-0.016c0.259-0.488-0.296-0.854-0.194-1.319c0.07-0.327,0.447-0.522,0.398-0.905
				c-0.014-0.117-0.047-0.36-0.532-0.275c2.637-2.141,2.637-2.141,2.651-2.188c-0.086-0.047-0.113-0.063-0.81,0.189
				c-0.278,0.102-0.285,0.104-0.363,0.115c0.014-0.038,0.046-0.139,1.099-0.846c0.417-0.281,0.443-0.318,0.472-0.361
				c-0.018-0.007-0.042-0.016-0.06-0.01c-0.01,0.001-0.95,0.256-1.649,0.778c-0.062,0.045-0.135,0.11-0.188,0.159l-2.373,2.21
				c0.567-0.04,0.854-0.572,1.334-0.763c0.009,0.058-0.19,0.342-0.824,0.818c-0.187,0.138-0.312,0.252-0.422,0.383
				c-0.023,0.027-0.476,0.613-0.47,0.707c0.005,0.074,0.055,0.086,0.322,0.153c0.063,0.017,0.144,0.046,0.197,0.081
				c0,0.012,0.003,0.033-0.004,0.044c-0.104,0.152-0.28,0.231-0.382,0.385c-0.188,0.272-0.294,0.591-0.479,0.866
				c-0.013,0.018-0.03,0.042-0.042,0.061c-0.338,0.42-0.458,0.232-0.544,0.099c-0.095,0.001-0.18,0.016-0.264,0.03
				c-0.292,0.371-0.41,0.844-0.702,1.214C16.013,21.457,15.388,21.601,15.029,22.074z"/>
			<path d="M79.951,3.439c0.004-0.003,0.006-0.01,0.006-0.014c0.283,0.011,0.491,0.234,0.768,0.261
				c-0.021-0.015-0.051-0.026-0.072-0.036c-0.477-0.205-2.27-0.854-2.463-0.906c0.516,0.192,0.761,0.283,1.129,0.465
				C79.415,3.256,79.871,3.439,79.951,3.439z"/>
			<path d="M74.742,1.695l-0.064-0.017l0.078,0.021C74.748,1.698,74.746,1.696,74.742,1.695z"/>
			<path d="M20.325,108.805"/>
			<path d="M30.812,43.433c0.02-0.005,0.051-0.018,0.072-0.024c0-0.007,0.004-0.016,0.002-0.024c-0.171-0.095-0.352-0.18-0.52-0.289
				c-0.156-0.099-0.283-0.237-0.451-0.322c-0.182-0.089-0.365-0.095-0.464-0.098c-0.372,0.003-0.741,0.062-1.116,0.035
				c-0.598-0.043-0.598-0.043-0.647-0.035c-0.29,0.044-0.421,0.183-0.307,0.321C27.636,43.305,29.97,43.651,30.812,43.433z"/>
			<path d="M99.206,14.904l-0.012-0.008l0.844,0.775c0.006,0.006,0.01,0.011,0.016,0.016C99.733,15.385,99.644,15.302,99.206,14.904
				z"/>
			<path d="M104.497,98.824c-0.451,0.164-0.73,0.586-1.17,0.768c-0.018-0.018-0.037-0.044-0.055-0.063
				c0.033-0.141,0.045-0.201,0.535-0.959c0.576-0.891,0.652-1.06,0.531-1.197c-0.227-0.063-0.771,0.104-0.789,0.134
				c-0.008,0.013-0.014,0.033-0.021,0.049c-0.15,0.363,0.045,0.721,0.029,1.081c-0.008,0.167-0.094,0.187-0.232,0.22
				c-0.314,0.072-0.434,0.166-0.574,0.604l-0.387,1.714c-0.002,0.013-0.203,1.213-1.754,1.976c-0.131,0.062-0.16,0.084-0.178,0.128
				c-0.082,0.202,0.125,0.368,0.068,0.566c-0.072,0.273-0.582,0.324-0.439,0.677c0.041,0.107,0.041,0.107,1.176-0.548
				c0.008,0.018,0.018,0.039,0.023,0.057c-0.07,0.132-0.07,0.132-1.971,2.543c0.057-0.049,5.539-5.115,5.322-7.671
				C104.577,98.877,104.532,98.847,104.497,98.824z"/>
			<path d="M102.813,103.174c0.006-0.021,0.006-0.021,0.025-0.046c0.105-0.13,0.08-0.176,0.08-0.178
				c-0.113,0.028-0.68,0.737-0.623,0.772c0.053,0.032,0.23-0.053,0.791-0.627c0.297-0.303,0.668-0.733,0.672-0.746
				c-0.223,0.175-0.385,0.407-0.586,0.604C102.892,103.227,102.87,103.216,102.813,103.174z"/>
			<path d="M101.72,104.556l0.021-0.02c0.834-0.827,1.256-1.281,1.264-1.298c-0.498,0.454-0.934,0.976-1.416,1.445L101.72,104.556z"
				/>
			<path d="M35.658,44.556c0.096,0.008,1.026-0.046,1.118-0.077c0.151-0.048,0.724-0.88,0.726-0.887
				c0.036-0.08-0.015-0.08-0.067-0.08c-0.463,0.046-0.91,0.203-1.38,0.142c-0.186-0.023-0.361-0.092-0.546-0.113
				c0,0-0.169-0.019-0.28,0.021c-0.402,0.149-0.328,0.588-0.086,0.797C35.234,44.438,35.396,44.535,35.658,44.556z"/>
			<path d="M17.648,34.393c0.024,0.053,0.005,0.121,0.058,0.164c0.201-0.083,0.718-1.396,0.727-1.41
				c0.084-0.222,0.278-0.807,0.255-0.931c-0.005-0.002-0.011-0.008-0.014-0.008c-0.005,0-0.014,0.002-0.021,0.006
				c-0.026,0.02-0.051,0.037-0.128,0.135c-0.167,0.224-0.255,0.491-0.393,0.731c-0.158,0.274-0.343,0.399-0.479,0.492
				c-0.097,0.067-0.183,0.123-0.236,0.25c-0.014,0.041-0.014,0.129,0.004,0.175c0.009,0.018,0.014,0.04,0.024,0.058
				C17.505,34.175,17.586,34.276,17.648,34.393z"/>
			<path d="M15.967,36.977c0.088,0.065,0.282-0.018,0.291,0.132c0.01,0.239-0.195,0.388-0.253,0.601
				c-0.185,0.674,0.952-0.151,0.968-0.158c0.138-0.111,0.347-0.276,0.468-0.528c0.014-0.032,0.034-0.074,0.046-0.105
				c0.009-0.032,0.026-0.074,0.033-0.105c0.078-0.222,0.09-0.458,0.166-0.678c0.088-0.265,0.231-0.507,0.326-0.766
				c0.101-0.271,0.107-0.425-0.149-0.399c-0.268,0.053-1,0.38-1.385,0.788C16.284,35.959,15.777,36.834,15.967,36.977z"/>
			<path d="M12.469,37.633c0.037-0.014,0.084-0.038,0.114-0.064c0.004-0.006,0.428-0.403,0.455-0.447
				c0.086-0.148-0.134-0.176-0.349-0.157c-0.44,0.05-0.959,0.324-0.722,0.544C12.066,37.6,12.341,37.679,12.469,37.633z"/>
			<path d="M76.986,9.678c0.041-0.322-0.207-0.555-0.756-0.973c-0.215-0.163-0.34-0.264-0.424-0.412
				c-0.273-0.486-0.191-1.081-0.465-1.57c-0.028-0.044-0.064-0.101-0.092-0.145c0.381,1.133,0.708,2.418,0.989,3.84
				C76.566,10.339,76.908,10.256,76.986,9.678z"/>
			<path d="M93.136,98.396c-0.203-0.318-0.562-0.495-0.562-0.495c-0.131,0.002-0.131,0.199-0.275,0.173
				c-0.262-0.046-0.447-0.246-0.686-0.34h-0.004h-0.002c0,0,0,0-0.004-0.003c0,0,0,0-0.002,0l0,0h-0.002l-0.004-0.002l0,0
				c-0.082-0.033-0.093-0.039-0.134-0.211c-0.148-0.668-0.154-0.692-0.433-0.77c-0.058-0.004-0.116-0.013-0.196,0.039
				c-0.1-0.041-0.174-0.125-0.279-0.162c-0.07-0.023-0.13-0.004-0.165,0.007c-0.122,0.042-0.698,0.426-0.651,0.521
				c0.063,0.134,0.258,0.037,0.313,0.177c0.056,0.135-0.134,0.248-0.134,0.248c0.349,0.555,0.419,0.604,0.549,0.695
				c0.107,0.074,0.245,0.123,0.333,0.139c0.136,0.024,0.27-0.031,0.403-0.007c0.042,0.005,0.051,0.024,0.084,0.162
				c0.025,0.119,0.1,0.438,0.595,0.73c0.049,0.029,0.102,0.053,0.15,0.075c0.23,0.103,0.48,0.138,0.709,0.234
				c0.111,0.046,0.189,0.101,0.25,0.176c0.051,0.061,0.15,0.18,0.244,0.123c0.115-0.073,0.168-0.575,0.086-0.825
				C93.245,98.859,93.271,98.605,93.136,98.396z"/>
			<path d="M101.696,99.09c0.086,0.042,0.168,0.28,0.15,0.649c0.012-0.009,0.031-0.024,0.045-0.037
				c0.252-0.248,0.662-1.194,0.338-1.383c-0.172-0.062-0.484-0.028-0.545,0.014c-0.373,0.255-0.893,0.88-0.859,0.952
				c0.006,0.02,0.043,0.015,0.105,0.004c0.078-0.016,0.154,0.002,0.232-0.018c0.045-0.013,0.064-0.02,0.227-0.113
				C101.505,99.094,101.599,99.042,101.696,99.09z"/>
			<path d="M100.911,97.93c-0.088,0-0.217,0-0.65,0.561c-0.129,0.174-0.105,0.257-0.033,0.329c0.16,0.163,0.479,0.205,0.678,0.005
				C101.114,98.62,101.151,98.021,100.911,97.93z"/>
			<path d="M95.308,100.604c-0.023-0.062-0.094-0.066-0.135-0.107c-0.018-0.018-0.029-0.047-0.043-0.066
				c-0.025-0.044-0.047-0.05-0.09-0.062c-0.148-0.006-0.303,0.044-0.449-0.011c-0.162-0.057-0.191-0.167-0.197-0.226
				c-0.229-0.005-0.457,0.028-0.539,0.079c-0.096,0.059-0.018,0.263-0.012,0.268c0.078,0.088,1.107,0.398,1.395,0.213
				C95.323,100.639,95.313,100.619,95.308,100.604z"/>
			<path d="M94.897,101.198c-0.029-0.005-0.082-0.014-0.146,0.023c-0.012,0.007-0.023,0.014-0.031,0.021
				c-0.018,0.013-0.039,0.036-0.055,0.05c-0.068,0.051-0.174,0.053-0.201,0.153c-0.02,0.068,0.117,0.602,0.16,0.656
				c0.02,0.024,0.055,0.053,0.129-0.009c0-0.002,0.197-0.176,0.234-0.412C95.022,101.456,95.056,101.261,94.897,101.198z"/>
			<path d="M17.083,19.779c0.084-0.015,0.169-0.029,0.257-0.042c-0.048-0.071-0.074-0.089-0.122-0.079
				C17.171,19.677,17.143,19.709,17.083,19.779z"/>
			<path d="M67.892,5.434c-0.349-0.055-0.285,0.035-0.25,0.084c0.063,0.084,0.866,0.869,0.939,0.648
				C68.621,6.053,68.484,5.525,67.892,5.434z"/>
			<path d="M117.544,43.808c0.178,0.675,0.379,1.445,0.572,2.187C117.952,45.301,117.765,44.579,117.544,43.808z"/>
			<path d="M66.118,0.002c0.06,0.006,0.118,0.014,0.179,0.021C66.23,0.015,66.164,0.008,66.107,0L66.118,0.002z"/>
			<path d="M64.671,4.254c0.621,0.582,2.359,1.162,2.652,0.964c-0.006-0.027-0.028-0.063-0.051-0.08
				c-0.24-0.153-0.535-0.681-0.574-1.158c-0.009-0.109-0.029-0.675,0.443-1.025c0.035-0.026,0.092-0.047,0.134-0.062l2.281-0.873
				c0.151-0.034,0.151-0.034,2.193-0.095c0.02-0.021,0.053-0.045,0.062-0.07c0.006-0.014,0.006-0.035,0.011-0.05
				c-0.075-0.087-0.548-0.238-0.597-0.242c-3.83,0.224-3.83,0.224-4.711,0.583c-0.043,0.02-0.108,0.039-0.147,0.072
				c-0.024,0.02-0.056,0.049-0.081,0.07c-0.133,0.116-0.1,0.321-0.234,0.439c-0.183,0.16-0.438,0.183-0.629,0.322
				c-0.087,0.062-0.16,0.197-0.252,0.254c-0.254,0.152-0.585,0.139-0.796,0.38C64.249,3.828,64.541,4.132,64.671,4.254z"/>
			<path d="M117.476,43.558l-0.037-0.126c-0.104-0.351-0.156-0.521-0.266-0.855c0.135,0.424,0.256,0.832,0.371,1.231
				C117.522,43.727,117.499,43.637,117.476,43.558z"/>
			<path d="M23.096,10.961c0.081,0.006,3.144-1.79,4.632-2.703c0.006-0.003,0.561-0.346,0.651-0.451
				c-0.031-0.006-0.031-0.006-0.214,0.046c0-0.008,0.003-0.018,0-0.026c0.115-0.086,0.24-0.157,0.356-0.242
				c-0.016,0.002-0.031,0.008-0.048,0.014c-0.841,0.414-1.797,0.887-4.14,2.457c-0.352,0.242-0.802,0.555-1.144,0.792l-0.053,0.038
				c-0.172,0.121-0.341,0.242-0.509,0.364c0.174-0.119,0.372-0.255,0.479-0.317C23.106,10.941,23.099,10.953,23.096,10.961z"/>
			<path d="M61.908,5.975c0.07,0.001,1.003-0.059,1.137-0.154c0.131-0.096-0.146-0.227-0.477-0.285
				c-0.037-0.008-0.094-0.014-0.134-0.021c-0.555-0.058-1.163,0.1-1.048,0.273C61.441,5.865,61.763,5.971,61.908,5.975z"/>
			<path d="M24.303,10.078c0.01-0.008,0.021-0.015,0.031-0.023c0.011-0.008,0.025-0.017,0.037-0.023
				C24.351,10.043,24.324,10.063,24.303,10.078z"/>
			<path d="M118.409,47.084c-0.008-0.021-0.014-0.053-0.021-0.072c0.002,0.002,0.002,0.009,0.004,0.012
				c0.01,0.043,0.023,0.09,0.035,0.131C118.419,47.133,118.415,47.104,118.409,47.084z"/>
			<path d="M119.604,57.307c0.049-0.494,0.049-0.494,0.047-0.521c-0.129-0.951-0.129-0.951-0.117-1.062
				c0.047,0.068,0.006,0.193,0.119,0.215c0.154,0.297,0.102,0.63,0.154,0.946c-0.012-0.304-0.047-0.61-0.043-0.917
				c0.006,0.009,0.014,0.02,0.021,0.028c0.002-0.016,0.006-0.037,0.004-0.055l-0.148-1.584c0.004,0.048,0.006,0.095,0.01,0.145
				c-0.211-0.73-0.096-1.507-0.34-2.229c-0.002,0.07,0.012,0.143,0.02,0.211c0.141,1.055,0.229,2.355,0.219,2.421
				c-0.016-0.03-0.016-0.03-0.07-0.268C119.474,55.809,119.474,55.809,119.604,57.307z"/>
			<polygon points="116.218,39.765 116.204,39.728 116.206,39.736 			"/>
			<path d="M119.813,60.334c0.016-1.237-0.08-2.906-0.082-2.911c-0.062,0.193-0.061,0.204-0.064,0.463
				c-0.004-0.02-0.006-0.042-0.012-0.062c-0.098,0.222-0.035,1.22-0.035,1.23c0.043,0.428-0.057,3.318-0.418,3.531
				c-0.285-0.276,0.125-0.636-0.111-0.919c-0.016,0.011-0.037,0.024-0.051,0.035c-0.121,1.642-0.221,2.054-0.285,2.11
				c-0.051-0.044-0.064-0.057-0.088-0.292c-0.037-0.359-0.359-0.247-0.359-0.247c-0.371,0.159-0.225,0.563-0.389,0.818
				c-0.098,0.146-0.303,0.129-0.41,0.267l-0.475,1.133c-0.096,0.294-0.174,0.785-0.168,0.822c0.002,0.02,0.016,0.042,0.02,0.06
				c0.234-0.049,0.094-0.339,0.264-0.437c0.119,0.173,0.133,0.188-0.221,1.19c-0.055,0.149-0.176,0.493-0.064,1.082
				c0.02,0.002,0.051,0.004,0.072,0.004c0.531-0.735,0.611-1.415,0.662-1.82c0.043-0.38,0.039-0.529,0.039-0.533
				c-0.014-0.288-0.234-0.551-0.102-0.852c0.105-0.236,0.105-0.239,0.166-0.287c0.041,0.033,0.041,0.033,0.104,0.143
				c0.016-0.007,0.043-0.016,0.059-0.023c-0.107,1.055-0.195,1.89-0.15,2.057c0.438-0.201,0.322-0.684,0.512-1.007
				c0.018,0.005,0.037,0.016,0.053,0.024c0.018,0.062,0.018,0.062,0.043,0.234c0.127-0.079,0.26-0.692,0.26-0.697
				c0,0.153-0.041,0.708-0.041,0.711c0.572-0.118,0.238-0.792,0.359-1.189c0.043,0.306,0.043,0.306,0.064,0.357
				c0.016,0,0.043,0.003,0.061,0.003c0.088-0.125,0.088-0.125,0.174-0.279c0.049,0.054,0.049,0.054,0.062,0.181
				c0.02-0.002,0.043-0.009,0.061-0.012c0.037,0.072,0.037,0.072,0.016,0.22C119.729,65.205,119.812,60.384,119.813,60.334z"/>
			<path d="M117.173,42.576c-0.164-0.53-0.344-1.081-0.543-1.658l-0.02-0.053l0.006,0.014
				C116.921,41.793,117.071,42.259,117.173,42.576z"/>
			<path d="M119.112,50.905c0.041,0.062,0.041,0.064,0.137,0.607c-0.182-1.516-0.617-2.984-0.857-4.489
				c-0.084-0.322-0.18-0.669-0.275-1.029c0.469,1.935,0.756,3.613,1.033,5.249C119.144,51.13,119.126,51.018,119.112,50.905z"/>
			<path d="M67.353,0.168c-0.014-0.004-0.031-0.006-0.045-0.008c0.01,0.002,0.025,0.004,0.039,0.006
				C67.348,0.166,67.352,0.166,67.353,0.168z"/>
			<path d="M67.133,0.135l-0.018-0.002c0.06,0.008,0.129,0.017,0.192,0.027C67.25,0.15,67.191,0.145,67.133,0.135z"/>
			<path d="M66.396,0.037c-0.033-0.005-0.066-0.008-0.1-0.014c0.053,0.006,0.104,0.015,0.146,0.02
				C66.431,0.041,66.41,0.038,66.396,0.037z"/>
			<path d="M74.376,4.416c0-0.001,0.004,0,0.004-0.001c0.006-0.003,0.014-0.011,0.006-0.03c-0.012-0.025-0.041-0.057-0.052-0.067
				c-0.285-0.274-0.788-0.452-0.841-0.46c-0.066-0.002-0.08,0.064,0,0.145C73.689,4.199,74.285,4.448,74.376,4.416z"/>
			<path d="M119.64,54.343l0.002,0.016C119.642,54.352,119.64,54.348,119.64,54.343L119.64,54.343z"/>
			<path d="M68.063,0.273c-0.018-0.004-0.034-0.006-0.05-0.008c0.012,0.002,0.02,0.002,0.03,0.004
				c-0.11-0.017-0.257-0.039-0.362-0.057h-0.004c0.07,0.016,0.346,0.057,0.381,0.061H68.063z"/>
			<path d="M45.421,96.001c-1.643,0.226-1.843,1.001-1.861,1.091c-0.164,0.824,0.816,1.211,0.762,1.995
				c-0.013,0.169-0.03,0.235-0.371,0.654c-0.363,0.438-0.43,0.854-0.43,1.465c0,0.099,0.018,0.232,0.037,0.329
				c0.066,0.329,1.078,2.214,1.086,2.229c0.125,0.214,0.26,0.193,0.33,0.183c0.833-0.127,1.268-0.327,1.289-0.599
				c0.053-0.667,0.204-1.402,0.268-1.716l1.25-5.673c0.119,0.079,0.162,0.22,0.242,0.325c0.018-0.002,0.043-0.002,0.061-0.004
				c0.024-0.089,0.025-0.105,0.038-0.292c0.052-0.897-0.299-2.975-1.017-2.76c-0.504,0.803-0.055,1.992-1.057,2.589
				C45.879,95.916,45.615,95.975,45.421,96.001z"/>
			<path d="M77.292,78.073c0.015,0.03,0.034,0.053,0.052,0.081c0.022,0.042,0.023,0.09,0.056,0.127
				c0.015,0.02,0.042,0.033,0.069,0.014c0.008-0.009,0.014-0.02,0.021-0.028c0.032-0.066,0.005-0.151-0.017-0.211
				c-0.006-0.018-0.051-0.149-0.036-0.18c-0.028-0.014-0.063-0.021-0.075-0.022c-0.069-0.004-0.089,0.029-0.107,0.086
				c0.003-0.009,0.014-0.021,0.019-0.028C77.269,77.966,77.267,78.025,77.292,78.073z"/>
			<path d="M107.813,87.8c-0.326,0.695-0.336,0.704-0.379,0.739c-0.004-0.003-0.01-0.005-0.018-0.005
				c-0.076-0.151-0.076-0.151-0.09-0.147c-0.062,0.024-0.1,0.091-0.16,0.117c-0.104,0.05-0.225,0.053-0.326,0.107
				c0,0-0.148,0.081-0.461,0.298c0.312-0.544,0.338-0.588,0.279-0.676c-0.016,0-0.035,0.005-0.049,0.012
				c-0.148,0.09-0.256,0.234-0.404,0.326c-0.166,0.104-0.361,0.145-0.527,0.25c-0.059,0.035-0.125,0.097-0.176,0.143
				c-0.109,0.097-0.43,0.477-0.342,0.604c0.008,0.005,0.018,0.013,0.021,0.018c0.281-0.155,0.416-0.482,0.734-0.588
				c0.006-0.004,0.459-0.085,0.373,0.211c-0.152,0.539-0.646,0.905-0.744,1.472c-0.021,0.116,0.043,0.28,0.082,0.313
				c0.008,0.004,0.021,0.004,0.031,0.004c0.031,0.001,0.055-0.02,0.09-0.02c0.074,0.009,0.141,0.09,0.229,0.047
				c0.021-0.009,0.049-0.024,0.197-0.387c0.199-0.487,0.277-0.588,0.52-0.676c0.004,0.005,0.01,0.012,0.016,0.018
				c-0.02,0.063-0.027,0.082-0.139,0.332c-0.174,0.392-0.17,0.419-0.166,0.444c0.088-0.05,0.592-0.776,0.633-0.84
				c0.707-1.093,0.723-1.334,0.781-2.13C107.819,87.79,107.817,87.795,107.813,87.8z"/>
			<path d="M106.212,85.187c-0.061-0.013-0.129-0.028-0.385,0.362c-0.195,0.301-0.326,0.502-0.654,0.741
				c-0.402,0.294-0.846,0.526-1.223,0.855c-0.033,0.028-0.068,0.058-0.105,0.116c0,0,0.588-0.143,0.908-0.322
				c0.092-0.049,0.166-0.103,0.195-0.121c0.18-0.133,0.268-0.342,0.418-0.497c0.01-0.009,0.029-0.014,0.045-0.018
				c0.139-0.005,0.371-0.062,0.463-0.165C105.88,86.132,106.388,85.262,106.212,85.187z"/>
			<path d="M78.059,81.429c0.408-0.509-0.146-2.906-0.507-2.954c-0.143,0.009-0.412,0.349-0.908,1.931
				c-0.32,1.023-0.205,1.122-0.083,1.228C77.228,82.206,78.052,81.436,78.059,81.429z"/>
			<path d="M102.071,94.027c-0.072-0.029-0.152-0.029-0.281,0c0.15,0.081,0.295,0.16,0.439,0.239
				C102.188,94.13,102.146,94.066,102.071,94.027z"/>
			<path d="M103.351,94.922c0.074,0.048,0.143,0.092,0.213,0.136c0.318-0.273,0.549-0.504,0.654-0.616
				c0.002,0,0.002-0.002,0.002-0.002s0.002-0.002,0,0C103.854,94.652,103.685,94.748,103.351,94.922z"/>
			<path d="M103.813,76.746c0.074-0.028,0.104-0.104,0.166-0.145c0.031-0.022,0.084-0.04,0.123-0.049
				c0.109-0.028,0.203-0.051,0.352-0.25c0.092-0.127,0.154-0.272,0.254-0.393c0.08-0.086,0.197-0.12,0.273-0.206
				c0.025-0.033,0.027-0.084,0.021-0.165c-0.002-0.097-0.035-0.192-0.041-0.289c-0.068,0.035-0.162,0.085-0.23,0.12
				c-0.656-0.224-0.656-0.224-0.689-0.222c-0.014,0.001-0.592,0.308-0.598,0.31c-0.225,0.153-0.234,0.702-0.145,0.885
				C103.3,76.351,103.634,76.814,103.813,76.746z"/>
			<path d="M73.076,119.782c0.004,0,0.309-0.068,0.405-0.1l-0.002-0.006"/>
			<path d="M73.099,119.521"/>
			<path d="M3.906,88.601c-0.071-0.126-0.139-0.257-0.205-0.374C3.753,88.326,3.829,88.46,3.906,88.601z"/>
			<path d="M117.851,52.948c0.066,0.069,0.066,0.069,0.469,0.886c0.891-1.654,0.332-6.53-1.355-11.858
				c-0.438-1.378-0.773-2.207-1.078-2.939c0.109,0.345,0.229,0.687,0.346,1.028c-0.307-0.427-1.248-2.546-1.348-2.97
				c-0.387-1.502-0.387-1.502-0.914-2.634c-0.344-0.742-0.859-1.707-1.232-2.438c-3.104-5.31-3.164-5.412-5.219-8.142
				c-3.688-4.52-3.908-4.792-6.49-7.298l-0.99-0.912c-1.844-1.475-3.449-3.244-5.504-4.461c0.047,0.049,0.109,0.118,0.156,0.169
				c-1.914-0.469-3.198-2.31-5.271-2.425c-0.688-1.268-1.066-1.967-5.367-3.775c0.18,0.099,0.426,0.229,0.614,0.321
				c-1.073-0.276-1.944-0.991-2.985-1.334c0.195,0.196,0.195,0.196,0.75,0.468c-1.095,0.135-2.084-0.496-3.172-0.447
				c0.404,0.65,1.271,0.766,1.666,1.428c-0.332-0.062-2.025-0.373-2.98-0.678c0.676,0.855,1.716,1.248,2.496,1.973
				c-1.186,0.22-1.991-1.255-3.24-0.729c0.189,0.212,0.189,0.212,0.887,0.569c-0.768-0.041-0.768-0.041-1.937-1.551
				c0.18,2.121,0.57,3.144,1.278,3.316c0.002-0.001,0.004,0,0.004,0h0.003l0.003,0.002c0,0,0.002,0,0.004,0.002h0.004
				c0,0,0.004,0,0.004,0.001h0.003l0.003,0.001h0.004c0,0,0.004,0,0.004,0.002c0,0,0-0.002,0.002,0h0.003c0.002,0,0.003,0,0.003,0
				h0.004c0.002,0.002,0.002,0.002,0.002,0c0.002,0.002,0.004,0.002,0.004,0.002c0.595,0.135,1.488,0.335,2.409,2.044
				c-1.409-1.443-1.698-1.704-2.385-1.304c-0.028,0.418,0.345,0.662,0.448,1.023c-0.367,0.426-0.914,0.58-1.346,0.913
				c0.426,3.679,0.768,8.073,0.795,13.12c-0.027-5.047-0.369-9.443-1-13.029l0,0h-0.003l0,0l0,0l0,0l0,0h-0.002l0,0
				c-0.823-0.23-1.318-0.51-1.835-0.828c0.494-0.137,0.992,0.009,1.488-0.018c-0.095-1.451-0.422-2.736-0.803-3.869
				c-0.301-0.434-0.301-0.434-0.348-0.968c0.084-0.487-0.053-0.823-0.098-0.917c-0.026-0.025-0.062-0.018-0.095-0.027
				c-0.079-0.021-0.16-0.043-0.239-0.065c-0.717-0.194-0.717-0.194-1.188-0.272c-0.065,0.047-0.155,0.109-0.222,0.154
				C73,4.93,73,4.93,72.394,5.829c0.342,1.176,1.905,1.636,1.8,3.073c-1.801-0.779-2.909-3.744-5.358-2.436
				c0.083,0.088,0.083,0.088,0.684,0.596c-0.006,0.005-0.675,0.553-1.437,0.238c0.001-0.084,0-0.199,0-0.285
				c-3.431-0.885-5.448-0.336-6.53-0.039c-2.121,0.581-2.764,0.756-3.021-0.055c0.05-0.067,0.112-0.158,0.161-0.228
				c0.197-0.026,0.463-0.021,0.662,0.002c-0.016-0.167-0.077-0.391-0.165-0.532c-0.199-0.021-1.003,0.012-1.3,0.502
				c1.021,1.457-0.698,1.332-0.714,1.33c-1.068-0.16-1.068-0.16-1.665-0.035l-3.584,1.124c0.099,0.249,0.296,0.44,0.386,0.694
				c-0.63,0.438-1.644,0.377-2.255-0.488c0.893-2.407,0.893-2.407,0.73-2.885c3.233,1.406,4.001,1.74,5.814-0.061
				c-1.162-1.178-2.813-1.271-4.22-1.908c0.042-0.08,0.104-0.189,0.146-0.272c0.201-0.009,0.473,0.002,0.675,0.019
				c-0.028-0.074-0.067-0.172-0.097-0.248c-1.727-0.048-1.727-0.048-1.82-0.134c0.396-0.218,0.849-0.162,1.271-0.257
				c-0.299-0.801-0.902-0.643-3.136-0.053c0.27-0.156,0.27-0.156,1.794-0.652c-4.094-0.847-24.791,9.01-24.602,11.719
				c1.179,0.3,2.85-0.96,4.32-2.07c-0.895,1.385-1.108,3.033-1.751,4.516c0.06,0.06,0.14,0.143,0.197,0.202
				c0.421-0.021,7.105-4.396,7.229-4.729c-0.117-0.151-0.3-0.331-0.44-0.458c0-0.098-0.004-0.228-0.007-0.324
				c0.07-0.07,7.447-5.861,8.395-3.68c-0.196,0.199-0.441,0.443-3.111,1.448c-2.711,1.021-2.965,2.991-1.791,3.139
				c1.566,0.198,3.186-0.552,4.721,0.265c-0.598,0.229-1.379-0.369-1.854,0.386c-1.27,0.243-2.544-0.075-3.811-0.009
				c-0.025,0.309-0.025,0.309,0.095,0.872c0.147,0.091,0.329,0.249,0.426,0.395c-1.263,1.274-1.263,1.274-1.979,1.019
				c-0.056-0.18-0.14-0.418-0.204-0.592c-0.76,0.106-0.76,0.106-1.116,0.592c-1.397,1.914-1.397,1.914-3.578,2.901
				c0.024,0.011,0.055,0.028,0.081,0.042l-0.026,0.001c-3.2,0.294-3.2,0.294-3.497,0.511c-0.442,0.305-0.598,0.28-0.98,0.031
				c-0.041-0.026-0.061-0.026-0.078-0.024c0.018-0.002,0.037-0.002,0.057-0.002c-0.074-0.085-0.296-0.341-1.404-0.134
				c-0.252,0.049-0.6,0.111-0.285-0.869c0.221-0.699,0.75-1.348,1.566-1.934c0.82-0.589,1.539-1.531,1.557-1.568
				c-0.004-0.01-0.012-0.021-0.016-0.031c-0.029-0.005-0.07-0.008-0.102-0.005c-0.528,0.078-1.486,0.288-1.965,0.804
				c-0.016,0.014-1.453,1.582-1.936,3.4c-0.065,0.252-0.065,0.252-0.639,0.416c-1.491,0.411-3.498,1.289-4.598,3.126
				c-1.831,0.447-2.364,3.101-4.668,2.744c-0.894,0.885-0.894,0.885-1.227,1.07c-0.449-0.164-0.449-0.164-1.279,0.953
				c0.132,0.041,0.308,0.095,0.442,0.134c0.672,5.426-1.908,5.544-5.179,5.695c-1.484,2.819-2.021,5.974-3.184,8.908
				c0.741-0.28,0.741-0.28,1.223-0.41c0.055,0.246,0.026,0.602-0.054,0.842c0.114,0.019,0.264,0.045,0.373,0.064
				c0.635-0.518,1.558-0.554,2.086-1.242c6.954-9.02,6.954-9.02,6.998-9.028c0.203,0.149,0.49,0.329,0.717,0.443
				c2.131-1.792,2.131-1.792,2.867-1.569l3.129,6.687c-0.035,1.279-1.074,1.503-3.355,1.994c0.028,0.118,0.067,0.276,0.095,0.396
				c0.605,0.207,0.866,0.786,1.299,1.183c0.109-0.028,0.255-0.062,0.362-0.09c0.086-1.373,0.086-1.373,0.634-1.98
				c0.083,0.07,0.195,0.164,0.278,0.234c0.959-0.901,1.259-2.218,2.042-3.229c0.211,0.073,0.456,0.279,0.581,0.463
				c0.067-0.115,0.155-0.273,0.222-0.39c-0.081-0.232-0.081-0.232-1.333-1.589c0.042-0.106,0.097-0.247,0.139-0.353
				c-1.169-0.771-0.942-2.383-1.95-3.249c0.667-1.607,0.667-1.607,1.479-1.893l3.328,5.205c-0.286,3.341-0.286,3.341,0.46,4.642
				c-0.733,1.347-0.376,1.649,0.489,2.378c0.099,0.006,0.104,0.006,0.109,0.006c0.004,0,0.007,0,0.007,0
				c0.009,0,0.011,0,0.015,0.001c0.003-0.001,0.007-0.001,0.007-0.001c0.007,0.001,0.011,0.001,0.011,0.001c0.007,0,0.012,0,0.012,0
				s0.011,0,0.016,0c0,0,0.008,0,0.012,0.002c1.295-2.738,1.295-2.738,0.784-4.679c-0.068-0.255-0.014-0.663,0.157-0.862
				c1.139-1.336,3.532,0.25,3.559,0.268c-0.007,0.111-0.016,0.257-0.02,0.368c1.449-0.736,1.449-0.736,2.494-0.926
				c-0.172-0.66-0.762-1.197-0.566-1.961c0.266-1.055,1.402-1.524,1.707-2.555c1.59-0.623,2.382-2.61,4.369-2.558
				c-0.168,0.153-0.486,0.27-0.713,0.273c0.345,0.368,0.428,0.452,1.389,0.489c-0.18,0.584-0.191,0.618-1.199,0.991
				c0.012,0.11,0.029,0.259,0.041,0.369c0.113,0.009,0.259,0.02,0.368,0.03c0,0.246,0.038,0.577,0.099,0.814
				c0.489,0.037,0.994,0.08,2.904-0.806c-0.982-0.495-1.101-0.91-1.189-1.244c0.949-0.623,1.934-1.27,4.322-1.079
				c0.053,0.098,0.123,0.228,0.176,0.325c-0.438,0.351-0.438,0.351-1.283,0.361c0.076,0.232,0.268,0.521,0.447,0.687
				c-0.725,0.304-1.322,0.878-2.131,1.005c-0.05,0.097-0.115,0.227-0.162,0.323c5.295,5.684,5.295,5.684,1.596,5.61
				c-0.112-0.002-0.266-0.018-0.38-0.023c-0.188-0.018-0.197-0.019-0.206-0.021c-0.01-0.002-0.02-0.002-0.029-0.004
				c-0.01,0-0.018,0-0.029-0.002c0,0-0.019-0.002-0.029-0.003c-0.009-0.002-0.021-0.004-0.029-0.004c-0.012,0-0.02-0.002-0.02-0.002
				c-0.023-0.003-0.035-0.003-0.045-0.005c-0.012,0-0.022-0.002-0.037-0.002c-1.746-0.125-2.934-1.714-4.695-1.808
				c-0.293-0.026-0.296-0.026-0.296-0.026c-0.011,0-0.018-0.002-0.021,0c-0.004-0.002-0.01-0.002-0.015-0.004h-0.015
				c0,0-0.006,0-0.012-0.001c-0.006,0-0.012,0-0.012,0c-0.008-0.002-0.014-0.002-0.017-0.002c-0.005,0-0.009,0-0.013,0
				c-1.42-0.057-2.635,0.786-4.01,0.929c0.078,0.106,0.186,0.247,0.268,0.354c-0.992,1.139-2.929,0.047-3.754,1.587
				c0.217,0.041,0.521,0.045,0.74,0.006c-1.494,2.382,0.603,4.65,2.158,4.464c0.423-0.051,0.559-0.495,0.898-0.656
				c2.562,0.927,2.562,0.927,3.5,0.321c0.481,0.155,0.994,0.166,1.475,0.32c-1.123,2.185-1.188,4.855-3.063,6.692
				c-0.771,0.752-1.257,0.518-3.3-0.472C31.693,48.938,30,47.962,28.269,47.9c-0.129-0.254-0.129-0.254-1.807-1.197
				c-0.025-0.121-0.058-0.283-0.084-0.402c-1.757-0.842-2.998,0.321-3.001,1.271c-0.005,1.012-0.005,1.012-0.37,1.496
				c-0.873,0.084-2.454-0.889-2.917-1.188l-4.416-3.556c0.833-1.078,0.73-2.571,1.608-3.629c-0.243-0.322-0.243-0.322-0.941-0.604
				c-0.991,0.6-2.316,0.216-3.21,1.095c-0.208-0.123-0.481-0.302-0.676-0.442c-0.019,0.004-2.072,0.417-4.416,2.739
				c-0.715-0.138-0.715-0.138-1.126,0.101c-0.203-0.101-0.435-0.342-0.521-0.552C4.244,44.41,0.013,57.53,0,60.757
				c-0.037,9.804,3.376,14.434,6.252,16.592c1.966-0.739,3.304-2.862,5.724-2.605c0.037,0.004,4.131,3.159,4.191,3.656
				c0.833,0.303,1.658,0.286,2.515,0.277c-0.857,0.009-1.683,0.025-2.477,0.05c0.261,2.073,0.535,3.142,0.537,3.147
				c0.149,0.338,1.878,2.385,2.151,2.547c0.32,0.188,0.618,0.366,3.445,6.039c1,2.01,0.484,4.462,1.852,6.364l5.981,7.434
				c1.848,1.621,3.113,3.837,5.284,5.128c0.98,0.58,1.614-0.427,2.444-0.541c0.104-0.509,0.357-0.977,0.438-1.494
				c0.33-2.169,0.325-2.193-0.092-3.505c-0.275-0.873-0.275-0.873,0.621-1.213c0.322-0.123,0.322-0.123,0.229-1.571
				c-0.024-0.395-0.024-0.395-0.791-1.764c-0.15-0.266-0.356-0.632,0.582-1.947c0.473-0.661,1.345-0.691,1.91-1.209
				c0.33-0.305,0.487-1.727,0.487-1.739c0.035-0.485-0.19-2.525-0.278-2.865c-0.162-0.607-0.662-1.033-0.873-1.616
				c-0.187-0.507,0.139-1.035-0.053-1.543c-0.15-0.39-0.477-0.66-0.671-1.02c0.02-0.048,2.443-4.986,5.462-6.923
				c0.044-0.028,0.101-0.065,0.143-0.094c2.771-1.814,6.24-8.005,6.27-8.672c-1.293-0.18-6.579,0.602-6.621,0.614
				c-1.236-0.912-1.453-1.172-1.722-1.5c0.461-4.092-4.987-5.129-4.721-9.119c0.11-1.649-0.179-1.985-0.515-2.375
				c-0.32-0.371-3.85-8.062-2.531-9.054c0.207,0.524,0.3,1.084,0.478,1.617c0.104,0.042,0.243,0.101,0.347,0.145
				c0.303-0.271,0.303-0.271,0.789-0.943l6.727,16.514c0.087,1.737,0.405,1.95,0.525,2.031c0.062,0.043,10.483-1.83,11.41-3.21
				c0.304-0.453,0.682-0.526,2.775-0.938c0.328-0.535,0.434-1.163,0.719-1.715c0.096,0.062,0.225,0.143,0.317,0.206
				c0.95-0.224,1.226-0.707,1.887-1.874c-0.729-0.603-0.729-0.603-0.761-1.322c-1.997-1.661-1.997-1.661-2.322-3.156
				c-2.014,1.888-2.127,1.873-4.985,1.479c-0.427-0.788-0.224-1.681-0.417-2.508c-0.074,0.945-0.074,0.945-0.357,1.452
				c-4.676-7.616-0.868-6.574-0.057-6.287c0.543,0.191,0.631,0.729,0.664,0.931c0.438,2.705,2.805,3.672,2.906,3.711
				c0.876,0.348,1.876,0.112,2.738,0.545c0.479,0.238,0.186,0.919,0.662,1.158c2.541,1.265,2.541,1.265,9.193,1.693
				c1.295,3.2,1.295,3.2,3.262,3.402c-0.055,0.12-0.131,0.28-0.19,0.4c-0.466,0.079-0.565,0.086-1.211,0.054
				c-0.13-0.021-0.13-0.021-0.13-0.021c0.915,2.188,1.789,2.043,2.488,1.926c0.018-0.063,0.145-0.069,0.182-0.124
				c0.445-0.595,0.611-0.816,1.223-1.139c-2.17,10.393,0.275,14.333,0.787,15.02c0.969-0.259,1.507-0.737,1.564-0.792
				c0.018-0.018,2.387-3.767,2.529-4.37c0.268-1.125,0.334-1.393,0.824-1.467c0.065-0.009,6.692-2.556,7.145-4.499
				c0.773-0.047,4.334-0.104,4.338-0.102c1.058,4.603,1.058,4.603,0.486,7.127c0.854,0.663,1.16,0.511,2.361-0.574
				c0.295,0.803-0.092,3.178-0.426,4.58c-0.346,1.44-1.643,2.457-1.771,3.994c-0.105,1.241,0.939,2.301,0.561,3.584
				c-0.492,1.656-0.609,2.051,0.279,3.485c0.094,0.073,0.145,0.091,0.195,0.108c-0.051-0.018-0.102-0.035-0.158-0.055
				c0.148,0.212,0.254,0.326,0.324,0.249c0.027-0.028,0.043-0.072,0.057-0.118c0.172-1.294,1.174-2.41,0.814-3.818
				c-0.523-2.04-0.523-2.04-0.383-3.74c-1.076-1.06,1.938-3.744,1.99-3.747c0.092-0.009,0.207,0.049,0.295,0.072
				c-0.049,0.108-0.111,0.251-0.164,0.36c0.383,0.879,1.416,1.263,1.688,2.222c0.371,1.308-0.006,1.943-0.34,2.508
				c0.062-0.005,6.145-0.678,4.672-7.07c-0.555-2.41-0.555-2.41,0.316-3.104c2.857-2.277,2.834-0.185,2.822,0.603
				c2.096-1.182,5.037-0.528,6.531-3.012c0.855-1.421,0.855-1.421,2.373-7.469c0.162-0.647-0.127-2.339-0.4-3.218
				c-0.422-1.378,1.346-1.647,1.406-2.781c-1.861-1.818-1.861-1.818-2.008-2.869c0.484-0.602,1.283-0.804,1.781-1.389
				c0.094-0.003,0.221-0.009,0.312-0.01c0.115,0.251,0.115,0.251,0.223,1.436c0.453,0.257,1.654,0.938,1.545,3.973
				c-0.051,1.435-0.6,2.827-0.34,4.286c0.09,0.004,0.213,0.007,0.305,0.009c0.014-0.009,1.127-1.126,0.516-5.129
				C116.845,56.967,116.763,56.434,117.851,52.948z M58.049,43.945c-0.165,0.086-1.538-0.044-2.816-0.487
				c-0.009-0.004-0.952-0.347-1.318-0.537l-1.493-0.928c-0.082-0.086-0.056-0.283-0.018-0.396c0.168-0.473,0.52-0.847,0.711-1.306
				c0.15-0.359,0.125-0.764,0.295-1.119c0.01-0.02,1.2-2.012,1.316-2.002c0.049,0.004,0.107,0.034,0.149,0.052
				c-0.551-0.44-1.281-0.611-1.762-1.16c-0.217-0.247-0.271-0.889-0.298-1.197c-0.132-1.527-0.132-1.527-0.86-2.411
				c0.98-0.338,0.98-0.338,1.2-0.487c0.271-0.184,0.352-0.52,0.599-0.726c0.162-0.143,0.397-0.057,0.573-0.173
				c0.245-0.165,0.391-0.422,0.604-0.621c0.415-0.393,1.827-0.63,2.454-0.312c0.207,0.107,0.262,0.118,0.4,0.146
				c0.135,0.014,0.182,0.01,0.33-0.032c1.034-0.318,1.389,0.451,1.068,1.366c-0.195,0.547-0.195,0.547,1.475,0.737
				c-0.009,0.013,0,0.037-0.009,0.051c-0.074,0.065-0.737,0.392-0.985,0.469c0-0.026,0-0.059,0-0.085
				c-0.033-0.014-3.258-1.156-2.862-0.241c0.095,0.219,0.296,0.354,0.421,0.546c-0.016,0.02-0.035,0.044-0.053,0.062
				c-0.379,0.007-0.555-0.072-0.848-0.198c-0.016,0.01-0.04,0.026-0.056,0.038c0.924,2.651,0.924,2.651,1.669,2.7
				c-0.061,0.627-0.508,1.199-0.268,1.869c0.274-0.209,0.38-0.939,0.791-0.674c0.462,0.301,0.642,1.59,0.64,1.6
				c-0.024,0.15-0.224,0.124-0.66,0.063c-0.358-0.047-0.626-0.012-0.796,0.104c-0.285,0.202-0.285,0.202,0.229,1.205
				c0.335,0.655,0.004,1.324,0.039,1.984c0.032,0.628,0.291,1.218,0.317,1.848C58.232,43.787,58.13,43.903,58.049,43.945z"/>
			<path d="M107.147,86.246c-0.188,0.092-0.441,0.218-0.641,0.632c-0.039,0.075-0.072,0.185-0.08,0.268
				c-0.016,0.097,0.01,0.191,0.006,0.288c-0.004,0.111-0.098,0.219-0.025,0.337c0.016,0.002,0.047,0.005,0.137-0.076
				c0.203-0.181,0.367-0.397,0.564-0.582c0.211-0.194,0.455-0.342,0.654-0.55c0.121-0.127,0.324-0.48,0.428-0.672
				c0.041-0.078,0.127-0.238,0.215-0.428c-0.199,0.189-0.465,0.441-0.664,0.634c0.004-0.013,0.484-1.291-0.223-1.563
				c-0.527-0.049-0.785,1.183-0.607,1.431c0.047,0.063,0.184,0.258,0.492,0.08C107.345,86.144,107.179,86.23,107.147,86.246z"/>
			<path d="M108.854,85.246c-0.209-0.109-0.301-0.158-0.273,0.531c0.004,0.104,0.01,0.199-0.035,0.3
				c-0.01,0.029-0.148,0.272-0.178,0.281c-0.096,0.035-0.09-0.11-0.141-0.165l0,0c-0.057,0.002-0.139,0.206-0.139,0.207
				c-0.057,0.151-0.051,0.317-0.098,0.471c-0.064,0.189-0.18,0.354-0.242,0.544c-0.014,0.044-0.012,0.053-0.004,0.066
				c0.035-0.003,0.035-0.003,0.094-0.114c0.512-0.974,0.521-0.976,0.568-0.979c0.109,0.13-0.088,0.229-0.037,0.354
				c0.051-0.04,0.211-0.261,0.33-0.48C109.161,85.42,109.028,85.343,108.854,85.246z"/>
			<path d="M108.46,80.811c-0.732,1.191-0.654,1.314-0.359,1.779c0.219,0.344-0.143,0.592-0.146,0.899
				c-0.002,0.25,0.256,0.391,0.271,0.632c0.002,0.087,0.006,0.104-0.012,0.222c0.186-0.123,0.125-0.439,0.393-0.499
				c0.221,0.382-0.266,0.79,0.041,1.168c0.197-0.72,0.197-0.72,0.266-0.766c0.125-0.088,0.143-0.099,0.119-0.34
				c-0.043-0.454-0.199-0.533-0.566-0.727c0-0.005-0.031-0.627,0.623-1.777c0.051,0.062,0.051,0.062,0.08,0.07
				c0.359-0.19,1.146-1.98,1.15-1.998c0.004-0.021-0.014-0.053-0.029-0.067c-0.176-0.174-0.391-0.292-0.539-0.494
				c-0.018,0.002-0.041,0.004-0.061,0.005c-0.188,0.169-0.938,1.451-1.021,1.919c-0.029,0.153-0.057,0.299-0.127,0.423
				C108.519,81.126,108.485,80.946,108.46,80.811z"/>
			<path d="M112.288,72.451c-0.152-0.038-0.986,0.379-1.115,0.688c-0.174,0.414-0.203,2.443-0.197,2.455
				c0.143-0.005,0.621-0.885,0.625-0.896c0.295-0.574,0.482-1.193,0.752-1.779C112.462,72.684,112.401,72.502,112.288,72.451z"/>
		</g>
	</g>
</g>
<g id="New_Symbol_6">
</g>
</svg>
