<?xml version="1.0" encoding="UTF-8"?>
<svg width="398px" height="92px" viewBox="0 0 398 92" version="1.1" xmlns="http://www.w3.org/2000/svg" xmlns:xlink="http://www.w3.org/1999/xlink">
    <!-- Generator: Sketch 44.1 (41455) - http://www.bohemiancoding.com/sketch -->
    <title>Group</title>
    <desc>Created with Sketch.</desc>
    <defs></defs>
    <g id="Welcome" stroke="none" stroke-width="1" fill="none" fill-rule="evenodd">
        <g id="Desktop" transform="translate(-313.000000, -208.000000)" fill="#000000">
            <g id="Group" transform="translate(315.000000, 209.000000)">
                <path d="M4.53125,34.875 L0,40.0625 C4.85419094,44.2291875 10.6562162,46.3125 17.40625,46.3125 C27.8438022,46.1874994 33.1770822,41.7708769 33.40625,33.0625 C33.40625,29.8333172 32.3958434,27.0000122 30.375,24.5625 C28.3333231,22.0833209 25.1771047,20.5520863 20.90625,19.96875 C18.7395725,19.6979153 17.0312563,19.4583344 15.78125,19.25 C13.5312387,18.8333313 11.8958384,18.0833387 10.875,17 C9.85416156,15.9374947 9.34375,14.7500066 9.34375,13.4375 C9.38541687,11.2499891 10.1458259,9.60417219 11.625,8.5 C13.0416737,7.43749469 14.8124894,6.90625 16.9375,6.90625 C21.0416872,6.98958375 24.8020662,8.15623875 28.21875,10.40625 L32.0625,4.71875 C27.8749791,1.69790156 22.947945,0.125000625 17.28125,0 C12.5728931,0.041666875 8.93751281,1.27082125 6.375,3.6875 C3.72915344,6.12501219 2.40625,9.33331344 2.40625,13.3125 C2.40625,16.6250166 3.45832281,19.4374884 5.5625,21.75 C7.60417688,24.0000113 10.5833138,25.4479134 14.5,26.09375 C16.6875109,26.4062516 18.6979075,26.6874988 20.53125,26.9375 C24.53127,27.6250034 26.5104169,29.6666497 26.46875,33.0625 C26.3854162,37.2083541 23.3854462,39.3229162 17.46875,39.40625 C12.468725,39.3645831 8.15626812,37.8541816 4.53125,34.875 Z M58.6875,45.9375 L65.59375,45.9375 L65.59375,32.0625 L73.59375,23.65625 L86,45.9375 L94.1875,45.9375 L78.0625,18.34375 L92.65625,0.375 L84.46875,0.375 L65.71875,23.84375 L65.59375,23.84375 L65.59375,0.375 L58.6875,0.375 L58.6875,45.9375 Z M117,45.9375 L123.90625,45.9375 L123.90625,0.375 L117,0.375 L117,45.9375 Z M151.5,45.9375 L180.59375,45.9375 L180.59375,39.40625 L158.40625,39.40625 L158.40625,0.375 L151.5,0.375 L151.5,45.9375 Z M205.09375,45.9375 L234.1875,45.9375 L234.1875,39.40625 L212,39.40625 L212,0.375 L205.09375,0.375 L205.09375,45.9375 Z M259.25,34.875 L254.71875,40.0625 C259.572941,44.2291875 265.374966,46.3125 272.125,46.3125 C282.562552,46.1874994 287.895832,41.7708769 288.125,33.0625 C288.125,29.8333172 287.114593,27.0000122 285.09375,24.5625 C283.052073,22.0833209 279.895855,20.5520863 275.625,19.96875 C273.458323,19.6979153 271.750006,19.4583344 270.5,19.25 C268.249989,18.8333313 266.614588,18.0833387 265.59375,17 C264.572912,15.9374947 264.0625,14.7500066 264.0625,13.4375 C264.104167,11.2499891 264.864576,9.60417219 266.34375,8.5 C267.760424,7.43749469 269.531239,6.90625 271.65625,6.90625 C275.760437,6.98958375 279.520816,8.15623875 282.9375,10.40625 L286.78125,4.71875 C282.593729,1.69790156 277.666695,0.125000625 272,0 C267.291643,0.041666875 263.656263,1.27082125 261.09375,3.6875 C258.447903,6.12501219 257.125,9.33331344 257.125,13.3125 C257.125,16.6250166 258.177073,19.4374884 260.28125,21.75 C262.322927,24.0000113 265.302064,25.4479134 269.21875,26.09375 C271.406261,26.4062516 273.416657,26.6874988 275.25,26.9375 C279.25002,27.6250034 281.229167,29.6666497 281.1875,33.0625 C281.104166,37.2083541 278.104196,39.3229162 272.1875,39.40625 C267.187475,39.3645831 262.875018,37.8541816 259.25,34.875 Z M313.40625,45.9375 L342.5,45.9375 L342.5,39.40625 L320.3125,39.40625 L320.3125,26.03125 L339.25,26.03125 L339.25,19.90625 L320.3125,19.90625 L320.3125,6.90625 L342.5,6.90625 L342.5,0.375 L313.40625,0.375 L313.40625,45.9375 Z M374.71875,45.9375 L381.65625,45.9375 L381.65625,6.53125 L394.125,6.53125 L394.125,0.375 L362.25,0.375 L362.25,6.53125 L374.71875,6.53125 L374.71875,45.9375 Z" id="SKILLSET" stroke="#000000" stroke-width="2"></path>
                <path d="M9.13280869,76.4541016 L9.13280869,81.2021484 L12.7206993,81.2021484 C13.6087246,81.1878254 14.2747335,80.9300155 14.7187462,80.4287109 C15.1555973,79.9632138 15.3740196,79.3903029 15.3740196,78.7099609 C15.3596966,77.8935506 15.098306,77.3027362 14.5898399,76.9375 C14.1887963,76.6152328 13.6087239,76.4541016 12.8496056,76.4541016 L9.13280869,76.4541016 Z M6.75878525,90 L6.75878525,74.3378906 L12.8710899,74.3378906 C14.1744819,74.3378906 15.2379478,74.6816372 16.0615196,75.3691406 C17.0569673,76.1497435 17.5761678,77.2633391 17.6191368,78.7099609 C17.5904908,80.8369247 16.5807353,82.2835248 14.5898399,83.0498047 L18.2206993,90 L15.395504,90 L12.1621056,83.3076172 L9.13280869,83.3076172 L9.13280869,90 L6.75878525,90 Z M44.8757782,90 L54.8767548,90 L54.8767548,87.7548828 L47.2498016,87.7548828 L47.2498016,83.1572266 L53.7595673,83.1572266 L53.7595673,81.0517578 L47.2498016,81.0517578 L47.2498016,76.5830078 L54.8767548,76.5830078 L54.8767548,74.3378906 L44.8757782,74.3378906 L44.8757782,90 Z M89.857029,85.6171875 C89.1981715,87.0423248 88.2027387,87.7548828 86.8707008,87.7548828 C86.3121043,87.7548828 85.8322914,87.6367199 85.4312477,87.4003906 C85.0230425,87.1998688 84.6936188,86.9384782 84.4429665,86.6162109 C84.1350222,86.2796207 83.9309227,85.8391954 83.8306618,85.2949219 C83.7160779,84.7506483 83.6587868,83.7086666 83.6587868,82.1689453 C83.6587868,80.6292241 83.7160779,79.5800809 83.8306618,79.0214844 C83.9309227,78.4915338 84.1350222,78.0582699 84.4429665,77.7216797 C84.6936188,77.3994125 85.0230425,77.1308604 85.4312477,76.9160156 C85.8322914,76.7083323 86.3121043,76.5973308 86.8707008,76.5830078 C87.6298192,76.5973308 88.274344,76.8157531 88.8042946,77.2382812 C89.3127607,77.6822939 89.6636686,78.2193979 89.857029,78.8496094 L92.3707008,78.8496094 C92.1200485,77.5390559 91.5184921,76.4397831 90.5660133,75.5517578 C89.6135346,74.670894 88.3817761,74.2233074 86.8707008,74.2089844 C85.6389238,74.2233074 84.6112648,74.5169242 83.787693,75.0898438 C82.9497982,75.6556018 82.3410803,76.3001266 81.9615211,77.0234375 C81.7251918,77.4029967 81.5497379,77.9007131 81.435154,78.5166016 C81.3277315,79.1324901 81.2740211,80.3499258 81.2740211,82.1689453 C81.2740211,83.9593188 81.3277315,85.1695932 81.435154,85.7998047 C81.4924459,86.1363949 81.5640598,86.415689 81.6499977,86.6376953 C81.7430971,86.8525401 81.8469372,87.0781238 81.9615211,87.3144531 C82.3410803,88.037764 82.9497982,88.6751275 83.787693,89.2265625 C84.6112648,89.799482 85.6389238,90.1002603 86.8707008,90.1289062 C88.2313847,90.1289062 89.4094328,89.7421914 90.4048805,88.96875 C91.3716822,88.1881471 92.0269491,87.0709708 92.3707008,85.6171875 L89.857029,85.6171875 Z M121.120506,76.4541016 L121.120506,81.2021484 L124.708397,81.2021484 C125.596422,81.1878254 126.262431,80.9300155 126.706444,80.4287109 C127.143295,79.9632138 127.361717,79.3903029 127.361717,78.7099609 C127.347394,77.8935506 127.086004,77.3027362 126.577538,76.9375 C126.176494,76.6152328 125.596422,76.4541016 124.837303,76.4541016 L121.120506,76.4541016 Z M118.746483,90 L118.746483,74.3378906 L124.858788,74.3378906 C126.162179,74.3378906 127.225645,74.6816372 128.049217,75.3691406 C129.044665,76.1497435 129.563865,77.2633391 129.606834,78.7099609 C129.578188,80.8369247 128.568433,82.2835248 126.577538,83.0498047 L130.208397,90 L127.383202,90 L124.149803,83.3076172 L121.120506,83.3076172 L121.120506,90 L118.746483,90 Z M156.573437,84.6933594 C156.58776,86.340503 157.132025,87.6474561 158.206249,88.6142578 C159.258989,89.6097055 160.569523,90.1145833 162.13789,90.1289062 C163.734903,90.1145833 165.056179,89.6097055 166.101757,88.6142578 C167.140174,87.6474561 167.673697,86.340503 167.702343,84.6933594 L167.702343,74.3378906 L165.32832,74.3378906 L165.32832,84.4355469 C165.313997,85.5026095 165.013218,86.3154269 164.425976,86.8740234 C163.82441,87.461266 163.061723,87.7548828 162.13789,87.7548828 C161.214057,87.7548828 160.458531,87.461266 159.871288,86.8740234 C159.269723,86.3154269 158.961783,85.5026095 158.94746,84.4355469 L158.94746,74.3378906 L156.573437,74.3378906 L156.573437,84.6933594 Z M195.420898,90 L197.794922,90 L197.794922,74.3378906 L195.420898,74.3378906 L195.420898,90 Z M228.446095,90 L230.83086,90 L230.83086,76.4541016 L235.116993,76.4541016 L235.116993,74.3378906 L224.159962,74.3378906 L224.159962,76.4541016 L228.446095,76.4541016 L228.446095,90 Z M261.492775,90 L263.866798,90 L263.866798,80.2353516 L263.909767,80.2353516 L267.186134,87.7548828 L269.162697,87.7548828 L272.439064,80.2353516 L272.492775,80.2353516 L272.492775,90 L274.866798,90 L274.866798,74.3378906 L272.621681,74.3378906 L268.217384,84.5429688 L263.72715,74.3378906 L261.492775,74.3378906 L261.492775,90 Z M302.864651,90 L312.865627,90 L312.865627,87.7548828 L305.238674,87.7548828 L305.238674,83.1572266 L311.74844,83.1572266 L311.74844,81.0517578 L305.238674,81.0517578 L305.238674,76.5830078 L312.865627,76.5830078 L312.865627,74.3378906 L302.864651,74.3378906 L302.864651,90 Z M339.800003,90 L342.174026,90 L342.174026,78.8710938 L342.216995,78.8710938 L349.296097,90 L351.541214,90 L351.541214,74.3378906 L349.167191,74.3378906 L349.167191,85.4667969 L349.124222,85.4667969 L342.034378,74.3378906 L339.800003,74.3378906 L339.800003,90 Z M382.203129,90 L384.587894,90 L384.587894,76.4541016 L388.874027,76.4541016 L388.874027,74.3378906 L377.916996,74.3378906 L377.916996,76.4541016 L382.203129,76.4541016 L382.203129,90 Z" id="RECRUITMENT" opacity="0.29857337"></path>
            </g>
        </g>
    </g>
</svg>